<?xml version="1.0" encoding="UTF-8" standalone="no"?>
<svg
   width="28"
   height="28"
   fill="#7C009B"
   className="bi bi-brush"
   viewBox="0 0 16 16"
   version="1.1"
   id="svg1"
   sodipodi:docname="brush.svg"
   inkscape:export-filename="brush.svg"
   inkscape:export-xdpi="96"
   inkscape:export-ydpi="96"
   inkscape:version="1.4.2 (f4327f4, 2025-05-13)"
   xmlns:inkscape="http://www.inkscape.org/namespaces/inkscape"
   xmlns:sodipodi="http://sodipodi.sourceforge.net/DTD/sodipodi-0.dtd"
   xmlns="http://www.w3.org/2000/svg"
   xmlns:svg="http://www.w3.org/2000/svg">
  <defs
     id="defs1" />
  <sodipodi:namedview
     id="namedview1"
     pagecolor="#ffffff"
     bordercolor="#000000"
     borderopacity="0.25"
     inkscape:showpageshadow="2"
     inkscape:pageopacity="0.0"
     inkscape:pagecheckerboard="0"
     inkscape:deskcolor="#d1d1d1"
     inkscape:zoom="72.9375"
     inkscape:cx="8"
     inkscape:cy="8"
     inkscape:window-width="2560"
     inkscape:window-height="1369"
     inkscape:window-x="-8"
     inkscape:window-y="-8"
     inkscape:window-maximized="1"
     inkscape:current-layer="svg1" />
  <path
     d="M15.825.12a.5.5 0 0 1 .132.584c-1.53 3.43-4.743 8.17-7.095 10.64a6.1 6.1 0 0 1-2.373 1.534c-.018.227-.06.538-.16.868-.201.659-.667 1.479-1.708 1.74a8.1 8.1 0 0 1-3.078.132 4 4 0 0 1-.562-.135 1.4 1.4 0 0 1-.466-.247.7.7 0 0 1-.204-.288.62.62 0 0 1 .004-.443c.095-.245.316-.38.461-.452.394-.197.625-.453.867-.826.095-.144.184-.297.287-.472l.117-.198c.151-.255.326-.54.546-.848.528-.739 1.201-.925 1.746-.896q.19.012.348.048c.062-.172.142-.38.238-.608.261-.619.658-1.419 1.187-2.069 2.176-2.67 6.18-6.206 9.117-8.104a.5.5 0 0 1 .596.04M4.705 11.912a1.2 1.2 0 0 0-.419-.1c-.246-.013-.573.05-.879.479-.197.275-.355.532-.5.777l-.105.177c-.106.181-.213.362-.32.528a3.4 3.4 0 0 1-.76.861c.69.112 1.736.111 2.657-.12.559-.139.843-.569.993-1.06a3 3 0 0 0 .126-.75zm1.44.026c.12-.04.277-.1.458-.183a5.1 5.1 0 0 0 1.535-1.1c1.9-1.996 4.412-5.57 6.052-8.631-2.59 1.927-5.566 4.66-7.302 6.792-.442.543-.795 1.243-1.042 1.826-.121.288-.214.54-.275.72v.001l.575.575zm-4.973 3.04.007-.005zm3.582-3.043.002.001h-.002z"
     id="path1" />
  <path
     style="fill:#ffffff;stroke-width:0.0137104"
     d="m 2.3436751,14.689866 c -0.1729437,-0.009 -0.5892168,-0.04995 -0.5981486,-0.05888 -0.00171,-0.0017 0.046795,-0.04605 0.107781,-0.09854 0.2024241,-0.174217 0.4506427,-0.466775 0.6218783,-0.732965 0.036381,-0.05655 0.1935341,-0.315849 0.3492291,-0.576207 0.2574344,-0.430492 0.4992304,-0.809701 0.6073445,-0.952499 0.081469,-0.107606 0.2236227,-0.244222 0.3215494,-0.309023 0.2317517,-0.153359 0.5212644,-0.183759 0.8282476,-0.08697 l 0.1051211,0.03314 0.3987349,0.391967 0.398735,0.391967 v 0.08247 c 0,0.109998 -0.034624,0.34085 -0.077598,0.51737 -0.1026708,0.421736 -0.2942628,0.768055 -0.5345607,0.966264 -0.1667257,0.137523 -0.3586644,0.220775 -0.6629061,0.287531 -0.5688511,0.124816 -1.2403871,0.176787 -1.865408,0.144365 z"
     id="path2" />
  <path
     style="fill:#ffffff;stroke-width:0.0137104"
     d="M 5.8619286,11.647705 5.578857,11.364392 5.6394392,11.193764 C 5.8839834,10.505013 6.2282671,9.7958359 6.5766181,9.2633053 6.7302811,9.0283977 6.8147217,8.9161718 7.0514521,8.6322264 8.3051123,7.1285283 10.254302,5.2309834 12.265394,3.5564306 c 0.720963,-0.6003153 1.858377,-1.4954984 1.876784,-1.4770914 0.0078,0.00777 -0.24588,0.4700846 -0.514067,0.9369419 -1.26982,2.210491 -2.942798,4.6362311 -4.4337184,6.428686 C 8.7309093,10.002189 8.1970848,10.597501 7.9663985,10.814405 7.4556549,11.294636 6.8818351,11.656001 6.2635884,11.886756 l -0.1185881,0.04426 z"
     id="path3" />
</svg>
