<?xml version="1.0" encoding="UTF-8" standalone="no"?>
<svg
   width="28"
   height="28"
   fill="#7c009b"
   class="bi bi-paint-bucket"
   viewBox="0 0 16 16"
   version="1.1"
   id="svg1"
   xmlns="http://www.w3.org/2000/svg"
   xmlns:svg="http://www.w3.org/2000/svg">
  <defs
     id="defs1" />
  <path
     d="M 6.192,2.78 C 5.734,2.103 5.265,1.532 4.842,1.137 A 3,3 0 0 0 4.132,0.622 C 3.915,0.518 3.572,0.417 3.25,0.602 2.883,0.815 2.823,1.232 2.82,1.498 2.817,1.802 2.884,2.162 2.993,2.542 3.189,3.229 3.549,4.07 4.028,4.944 L 0.752,8.22 C 0.475,8.497 0.483,8.876 0.534,9.138 c 0.055,0.283 0.187,0.593 0.36,0.903 0.348,0.627 0.92,1.361 1.626,2.068 0.707,0.707 1.441,1.278 2.068,1.626 0.31,0.173 0.62,0.305 0.903,0.36 0.262,0.05 0.64,0.059 0.918,-0.218 l 5.615,-5.615 c 0.118,0.257 0.092,0.512 0.05,0.939 -0.03,0.292 -0.068,0.665 -0.073,1.176 V 10.5 h 0.003 a 1,1 0 0 0 1.993,0 H 14 v -0.057 a 1,1 0 0 0 -0.004,-0.117 c -0.055,-1.25 -0.7,-2.738 -1.86,-3.494 A 4,4 0 0 0 11.925,6.398 C 11.576,5.772 11.005,5.038 10.298,4.331 9.591,3.624 8.857,3.052 8.23,2.704 7.92,2.532 7.61,2.4 7.327,2.344 7.065,2.294 6.687,2.286 6.409,2.563 Z M 4.16,1.867 C 4.541,2.223 5.004,2.789 5.471,3.499 L 4.767,4.204 C 4.385,3.477 4.107,2.802 3.954,2.266 A 3.3,3.3 0 0 1 3.823,1.593 Q 3.96,1.683 4.16,1.867 m 0.394,3.965 c 0.54,0.852 1.107,1.567 1.607,2.033 A 0.50023694,0.50023694 0 1 0 6.843,7.133 C 6.39,6.711 5.826,5.997 5.279,5.106 L 6.367,4.018 Q 6.448,4.199 6.55,4.383 c 0.349,0.627 0.92,1.361 1.627,2.068 0.706,0.707 1.44,1.278 2.068,1.626 Q 10.428,8.18 10.61,8.26 L 5.749,13.122 5.681,13.112 C 5.544,13.085 5.339,13.008 5.073,12.86 4.549,12.568 3.887,12.06 3.227,11.4 2.567,10.74 2.059,10.08 1.767,9.554 1.62,9.289 1.542,9.084 1.516,8.947 L 1.506,8.879 Z M 7.424,3.897 A 2.4,2.4 0 0 1 7.183,3.336 c 0.135,0.033 0.324,0.11 0.562,0.241 0.524,0.292 1.186,0.8 1.846,1.46 0.45,0.45 0.83,0.901 1.118,1.31 A 3.5,3.5 0 0 0 9.643,6.438 11,11 0 0 1 8.883,5.744 C 8.223,5.084 7.716,4.422 7.425,3.897 Z"
     id="path1" />
  <path
     style="fill:#ffffff;stroke-width:0.0137104"
     d="M 5.5938303,13.081107 C 4.7178261,12.813682 3.2004646,11.53748 2.2504058,10.269066 1.8563045,9.742905 1.5767357,9.2342713 1.5249107,8.9491355 L 1.5123554,8.8800577 3.0315392,7.3609202 c 0.835551,-0.8355257 1.521138,-1.516315 1.5235264,-1.5128652 0.00239,0.00345 0.083886,0.1265808 0.1811048,0.2736245 0.4361293,0.659644 0.8715254,1.2064534 1.2779106,1.6049145 0.2546533,0.249688 0.2842844,0.2659705 0.4846337,0.2663081 0.1304076,2.198e-4 0.1513661,-0.00339 0.2226485,-0.038398 C 6.8216221,7.9052712 6.9113167,7.8155755 6.9605191,7.7153452 6.99505,7.645002 6.9991378,7.6221636 6.9991404,7.4995716 6.9991442,7.3068786 6.9694776,7.2498945 6.7602977,7.0408003 6.3107354,6.5914218 5.8267684,5.9631272 5.3677473,5.2329661 L 5.2874125,5.1051782 5.8210183,4.5714408 c 0.293483,-0.2935555 0.5374243,-0.5337373 0.5420916,-0.5337373 0.00467,0 0.018691,0.026723 0.031165,0.059384 0.03943,0.1032464 0.2518931,0.4738732 0.4021611,0.701542 0.8946192,1.3554243 2.4326454,2.78277 3.663243,3.3996268 l 0.128917,0.064622 -0.8966972,0.9002584 c -3.1756253,3.1882363 -3.941575,3.9507923 -3.9676777,3.9500963 -0.01516,-4.04e-4 -0.073836,-0.01486 -0.1303908,-0.03213 z"
     id="path2" />
  <path
     style="fill:#ffffff;stroke-width:0.0137104"
     d="M 9.5424165,6.3448173 C 8.5078771,5.4277558 7.7387446,4.5132261 7.3492489,3.7370524 7.281218,3.6014828 7.1921504,3.3671184 7.2041132,3.3551556 c 0.013673,-0.013673 0.2249084,0.070999 0.4065723,0.1629712 0.5899617,0.2986854 1.2517676,0.8118249 1.9600278,1.5197322 0.4370037,0.4367857 0.6940607,0.7272777 0.9743657,1.1010994 0.06921,0.092296 0.132437,0.1762884 0.14051,0.1866496 0.0123,0.01579 -0.003,0.017324 -0.09467,0.00948 C 10.450872,6.323101 10.103073,6.346845 9.8918317,6.382815 9.610374,6.43074 9.6433935,6.434331 9.5424135,6.344818 Z"
     id="path3" />
</svg>
