<?xml version="1.0" encoding="UTF-8" standalone="no"?>
<svg
   width="28"
   height="28"
   fill="#7c009b"
   className="bi bi-eraser"
   viewBox="0 0 16 16"
   version="1.1"
   id="svg1"
   xmlns="http://www.w3.org/2000/svg"
   xmlns:svg="http://www.w3.org/2000/svg">
  <defs
     id="defs1" />
  <path
     d="m 8.086,2.207 a 2,2 0 0 1 2.828,0 l 3.879,3.879 a 2,2 0 0 1 0,2.828 l -5.5,5.5 A 2,2 0 0 1 7.879,15 H 5.12 A 2,2 0 0 1 3.706,14.414 l -2.5,-2.5 a 2,2 0 0 1 0,-2.828 z m 2.121,0.707 a 1,1 0 0 0 -1.414,0 L 4.16,7.547 9.453,12.84 14.086,8.207 a 1,1 0 0 0 0,-1.414 z M 8.746,13.547 3.453,8.254 1.914,9.793 a 1,1 0 0 0 0,1.414 l 2.5,2.5 A 1,1 0 0 0 5.121,14 H 7.88 a 1,1 0 0 0 0.707,-0.293 z"
     id="path1" />
  <path
     style="fill:#ffffff;stroke-width:0.0137103"
     d="M 6.8140674,10.186867 4.1748356,7.5475594 6.5192943,5.2023671 C 8.1576108,3.5635379 8.8909057,2.8389709 8.9539028,2.7967362 9.134908,2.6753858 9.2768308,2.6337443 9.5081405,2.634118 c 0.1495875,2.417e-4 0.176632,0.00437 0.2978863,0.045455 0.08015,0.027159 0.1731486,0.071527 0.2330762,0.1111969 0.07692,0.050915 0.562224,0.5293745 2.122588,2.0926315 2.192639,2.1967039 2.083148,2.0794885 2.162018,2.3145416 0.03295,0.098214 0.0368,0.1297532 0.0368,0.301628 0,0.1718749 -0.0038,0.2034143 -0.0368,0.301628 -0.07931,0.2363629 0.06073,0.087845 -2.504756,2.656447 l -2.3656542,2.368528 z"
     id="path2" />
  <path
     style="fill:#ffffff;stroke-width:0.0137103"
     d="M 4.9149336,13.970721 C 4.8063414,13.946628 4.7009226,13.904379 4.5998286,13.844436 4.537259,13.807335 4.1955,13.473651 3.17219,12.450529 1.707807,10.986414 1.7592561,11.043126 1.6782678,10.80377 c -0.027893,-0.08244 -0.03873,-0.145933 -0.043624,-0.255609 -0.00837,-0.187627 0.018798,-0.317604 0.1027668,-0.491606 L 1.8002649,9.9263068 2.6274773,9.0968297 3.4546897,8.267352 6.0947508,10.906598 8.734812,13.545844 8.5998331,13.676093 C 8.448424,13.822196 8.3393057,13.89237 8.1782348,13.947223 l -0.1096828,0.03736 -1.5355612,0.0022 c -1.2366464,0.0018 -1.5516203,-0.0013 -1.6180572,-0.01608 z"
     id="path3" />
</svg>
